<svg xmlns="http://www.w3.org/2000/svg" xmlns:xlink="http://www.w3.org/1999/xlink" viewBox="0 0 139.7 138.4"><defs><style>.cls-1,.cls-4{fill:none;stroke-miterlimit:10;stroke-width:3px;}.cls-1{stroke:url(#linear-gradient);}.cls-2{fill:url(#linear-gradient-2);}.cls-3{font-size:80px;}.cls-3,.cls-6{fill:#fff;font-family:Poppins-Bold, Poppins;font-weight:700;}.cls-4{stroke:url(#linear-gradient-3);}.cls-5{fill:url(#linear-gradient-4);}.cls-6{font-size:53px;}</style><linearGradient id="linear-gradient" x1="50.69" y1="15.26" x2="85.78" y2="99.92" gradientTransform="matrix(0.97, 0.4, -0.35, 0.84, 20.16, -22.78)" gradientUnits="userSpaceOnUse"><stop offset="0" stop-color="#ff7171"/><stop offset="0.12" stop-color="#ff7a71"/><stop offset="0.31" stop-color="#ff9471"/><stop offset="0.55" stop-color="#ffbb71"/><stop offset="1" stop-color="#ff7171"/></linearGradient><linearGradient id="linear-gradient-2" x1="36.54" y1="7.55" x2="92.97" y2="105.29" gradientUnits="userSpaceOnUse"><stop offset="0" stop-color="#bbecf2"/><stop offset="0.12" stop-color="#b6e3f3"/><stop offset="0.32" stop-color="#a9c9f7"/><stop offset="0.58" stop-color="#95a0fc"/><stop offset="0.71" stop-color="#8989ff"/><stop offset="0.92" stop-color="#7f29cf"/></linearGradient><linearGradient id="linear-gradient-3" x1="51.42" y1="16.39" x2="86.06" y2="99.95" xlink:href="#linear-gradient"/><linearGradient id="linear-gradient-4" x1="123.32" y1="56.2" x2="90.54" y2="112.99" gradientUnits="userSpaceOnUse"><stop offset="0" stop-color="#b1f4b6"/><stop offset="0.11" stop-color="#a8f0ae"/><stop offset="0.3" stop-color="#8ee698"/><stop offset="0.53" stop-color="#65d674"/><stop offset="0.71" stop-color="#43c956"/><stop offset="0.92" stop-color="#b9c906"/></linearGradient></defs><g id="Layer_2" data-name="Layer 2"><path class="cls-1" d="M119.2,47.7c10.9,11.1,15,22.1,11.1,31.5-7.5,18.3-42.1,21.5-77.2,7S-3.7,45.6,3,27C7.1,15.5,21.6,11.7,35.5,10.4" transform="translate(-0.2)"/></g><g id="Layer_1" data-name="Layer 1"><circle class="cls-2" cx="64.8" cy="56.4" r="56.4"/><text class="cls-3" transform="translate(53.3 91.2) rotate(-22.1)">P</text><path class="cls-4" d="M122.8,51.8c9.6,11,11.6,18.1,7.7,27.6-7.5,18.3-42.1,21.4-77.3,7S-4.4,45.4,3.1,27.1C6.9,18,14.5,12.6,28.4,11.3" transform="translate(-0.2)"/><circle class="cls-5" cx="106.9" cy="84.6" r="32.8"/><text class="cls-6" transform="translate(82.1 92.6) rotate(24.5)">N</text></g></svg>